<svg xmlns="http://www.w3.org/2000/svg" viewBox="0 0 64 64" shape-rendering="crispEdges">
  <rect width="64" height="64" fill="none"/>
  <rect x="18" y="8" width="6" height="10" fill="#55386f"/>
  <rect x="40" y="8" width="6" height="10" fill="#55386f"/>
  <rect x="22" y="12" width="20" height="10" fill="#6f57a3"/>
  <rect x="16" y="20" width="32" height="20" fill="#7d65b7"/>
  <rect x="12" y="24" width="8" height="12" fill="#7d65b7"/>
  <rect x="44" y="24" width="8" height="12" fill="#7d65b7"/>
  <rect x="20" y="40" width="10" height="12" fill="#5a4a88"/>
  <rect x="34" y="40" width="10" height="12" fill="#5a4a88"/>
  <rect x="18" y="52" width="12" height="8" fill="#47386e"/>
  <rect x="34" y="52" width="12" height="8" fill="#47386e"/>
  <rect x="24" y="24" width="4" height="4" fill="#ffffff"/>
  <rect x="36" y="24" width="4" height="4" fill="#ffffff"/>
  <rect x="26" y="26" width="2" height="2" fill="#1e2130"/>
  <rect x="36" y="26" width="2" height="2" fill="#1e2130"/>
  <rect x="28" y="32" width="8" height="4" fill="#f2b955"/>
  <rect x="26" y="36" width="12" height="4" fill="#e28a47"/>
</svg>
